<?xml version="1.0" encoding="UTF-8"?>
<svg width="167px" height="198px" viewBox="0 0 167 198" version="1.1" xmlns="http://www.w3.org/2000/svg" xmlns:xlink="http://www.w3.org/1999/xlink">
    <title>Group</title>
    <g id="Page-1" stroke="none" stroke-width="1" fill="none" fill-rule="evenodd">
        <g id="Extra-Large" transform="translate(-71.000000, -143.000000)">
            <g id="Group" transform="translate(71.000000, 143.000000)">
                <text id="William-Su" font-family="NotoSans-Italic_Black-Italic, Noto Sans" font-size="20" font-style="italic" font-weight="800" letter-spacing="2.7" fill="#371C97">
                    <tspan x="13" y="164">William Su</tspan>
                </text>
                <text id="蘇可維" font-family="PingFangTC-Thin, PingFang TC" font-size="20" font-weight="300" letter-spacing="2.7" fill="#22125D">
                    <tspan x="44" y="191">蘇可維</tspan>
                </text>
                <path d="M154.401331,5.88979552 C156.501686,6.57449391 157.647306,8.8332368 156.960753,10.9329845 C156.857892,11.2475735 156.716384,11.5481798 156.538688,11.8274138 L153.619269,16.4341027 C151.461053,13.4461268 147.947669,11.5016353 143.980124,11.5016353 C127.082299,11.5016353 111.313116,19.9847053 102.000426,34.0847152 L101.690902,34.5533537 C101.653519,34.6099545 101.616346,34.6666939 101.579383,34.7235706 C93.3269917,47.4221444 96.9313346,64.4062575 109.629908,72.658649 L115.555,76.509 L81.0461149,130.972892 C79.863733,132.838975 77.3924634,133.393225 75.5263798,132.210843 C74.7408004,131.713087 74.1532119,130.957154 73.8646682,130.073051 L54.9300908,72.0571509 C54.2446773,69.957031 51.9865563,68.8101849 49.8864364,69.4955984 C48.6469617,69.9001243 47.6824248,70.8833555 47.3017639,72.1303664 L29.3257235,131.018251 C28.6807458,133.131139 26.4450533,134.321116 24.3321645,133.676139 C23.0591817,133.287549 22.0628656,132.291233 21.6742765,131.018251 L4.35691249,74.2881307 C1.46829776,64.8252898 -1.22573837e-13,54.9861537 3.49572192e-14,45.0922438 L3.7727154e-14,33.783127 C3.79919217e-14,31.6211348 1.75264102,29.8684937 3.91463329,29.8684937 C5.63639446,29.8684937 7.15602599,30.9934696 7.65870943,32.6402151 L21.6742765,78.5539465 C22.3192542,80.6668352 24.5549467,81.8568122 26.6678355,81.2118345 C27.9408183,80.8232454 28.9371344,79.8269293 29.3257235,78.5539465 L47.1742765,20.0836995 C47.8192542,17.9708108 50.0549467,16.7808338 52.1678355,17.4258115 C53.4408183,17.8144006 54.4371344,18.8107167 54.8257235,20.0836995 L71.5280914,74.7991478 C72.1725048,76.9122088 74.4082618,78.1020647 76.5211156,77.4569725 C77.9548848,77.019217 79.0235241,75.8165151 79.2888449,74.341073 C85.741224,38.5854056 93.311609,16.3220396 102,7.55097502 C111.390535,-1.92891525 128.857646,-2.48264175 154.401331,5.88979552 Z" id="Combined-Shape" fill="#6236FF"></path>
                <path d="M134.400932,66.9255576 L137.877204,61.5704713 C145.273726,50.1763656 160.506539,46.935683 171.900644,54.3322044 C171.958612,54.3698341 172.01642,54.407708 172.074069,54.445825 L172.47919,54.7136917 C185.145775,63.088848 192.764979,77.2607789 192.764979,92.445825 C192.764979,98.3384249 187.988083,103.115321 182.095483,103.115321 C179.418819,103.115321 176.839932,102.109254 174.870381,100.296688 L170.119228,95.9242305 C159.955182,86.5703198 144.132752,87.2270645 134.778841,97.3911107 C134.677776,97.5009286 134.577696,97.611649 134.478613,97.7232584 C125.826704,107.468995 110.912465,108.355717 101.166729,99.7038074 C100.719416,99.3066998 100.287365,98.8927273 99.8715112,98.4627873 L74.381024,72.1088675 C73.6130897,71.3149211 73.6341766,70.0487668 74.4281229,69.2808325 C75.0731167,68.6569707 76.054676,68.5390683 76.829064,68.9924376 L90.9045449,77.2329989 C105.828546,85.9703305 124.984786,81.4308312 134.400932,66.9255576 Z" id="Rectangle-Copy" fill="#F7B500" transform="translate(128.500000, 78.764979) rotate(-450.000000) translate(-128.500000, -78.764979) "></path>
            </g>
        </g>
    </g>
</svg>